<?xml version="1.0" ?><svg height="24px" version="1.1" viewBox="0 0 24 24" width="24px" xmlns="http://www.w3.org/2000/svg" xmlns:xlink="http://www.w3.org/1999/xlink"><title/><desc/><g fill="none" fill-rule="evenodd" id="Eye-Open" stroke="none" stroke-width="1"><g id="Icon-Go-Copy-21" transform="translate(4.000000, 4.000000)"><rect height="16" id="Rectangle" width="16" x="0" y="0"/><path d="M8,13 C11.8659932,13 15,9.14404075 15,8 C15,6.85595925 11.8659932,3 8,3 C4.13400675,3 1,6.75 1,8 C1,9.25 4.13400675,13 8,13 Z" id="Oval" stroke="#000000" stroke-linecap="round" stroke-linejoin="round" stroke-width="2"/><circle cx="8" cy="8" fill="#000000" id="Oval" r="2" style="mix-blend-mode: lighten;"/><g id="Group-57" stroke="#000000" stroke-linecap="round" stroke-width="2" transform="translate(8.014104, 3.000000) scale(1, -1) translate(-8.014104, -3.000000) translate(1.514104, 1.000000)"><line id="Path-28-Copy" transform="translate(1.485896, 2.000000) rotate(-315.000000) translate(-1.485896, -2.000000) " x1="1.48589607" x2="1.48589607" y1="1" y2="3"/><line id="Path-28-Copy" transform="translate(11.485896, 2.000000) scale(-1, 1) rotate(-315.000000) translate(-11.485896, -2.000000) " x1="11.4858961" x2="11.4858961" y1="1" y2="3"/><line id="Path-28" x1="6.48589607" x2="6.48589607" y1="2" y2="4"/></g></g></g></svg>